<svg width="79" height="16" viewBox="0 0 79 16" fill="none" xmlns="http://www.w3.org/2000/svg">
<path d="M0.264205 15V0.454545H3.33949V12.4645H9.57528V15H0.264205ZM18.5508 10.3551V4.09091H21.5763V15H18.6715V13.0185H18.5579C18.3117 13.6577 17.9021 14.1714 17.3292 14.5597C16.761 14.9479 16.0674 15.142 15.2482 15.142C14.5191 15.142 13.8775 14.9763 13.3235 14.6449C12.7695 14.3134 12.3363 13.8423 12.0238 13.2315C11.716 12.6207 11.5598 11.8892 11.555 11.0369V4.09091H14.5806V10.4972C14.5853 11.1411 14.7582 11.6501 15.0991 12.0241C15.44 12.3982 15.8969 12.5852 16.4698 12.5852C16.8344 12.5852 17.1753 12.5024 17.4925 12.3366C17.8098 12.1662 18.0655 11.9152 18.2596 11.5838C18.4585 11.2524 18.5555 10.8428 18.5508 10.3551Z" fill="#5F5DFF"/>
<path d="M23.9964 15V4.09091H26.88V6.01562H27.0078C27.2351 5.37642 27.6139 4.87216 28.1442 4.50284C28.6745 4.13352 29.3089 3.94886 30.0476 3.94886C30.7957 3.94886 31.4325 4.13589 31.9581 4.50994C32.4837 4.87926 32.834 5.38116 33.0092 6.01562H33.1229C33.3454 5.39062 33.7479 4.8911 34.3303 4.51705C34.9174 4.13826 35.611 3.94886 36.4112 3.94886C37.4292 3.94886 38.2554 4.2732 38.8899 4.92188C39.5291 5.56581 39.8487 6.47964 39.8487 7.66335V15H36.8303V8.25994C36.8303 7.65388 36.6693 7.19934 36.3473 6.89631C36.0253 6.59328 35.6229 6.44176 35.1399 6.44176C34.5907 6.44176 34.1622 6.61695 33.8544 6.96733C33.5466 7.31297 33.3928 7.76989 33.3928 8.33807V15H30.4595V8.19602C30.4595 7.66098 30.3056 7.23485 29.9979 6.91761C29.6948 6.60038 29.2947 6.44176 28.7976 6.44176C28.4614 6.44176 28.1584 6.52699 27.8885 6.69744C27.6233 6.86316 27.4126 7.09754 27.2564 7.40057C27.1001 7.69886 27.022 8.04924 27.022 8.4517V15H23.9964ZM45.3494 15.206C44.6534 15.206 44.0331 15.0852 43.4886 14.8438C42.9441 14.5975 42.5133 14.2353 42.196 13.7571C41.8835 13.2741 41.7273 12.6728 41.7273 11.9531C41.7273 11.3471 41.8385 10.8381 42.0611 10.4261C42.2836 10.0142 42.5866 9.68277 42.9702 9.43182C43.3537 9.18087 43.7893 8.99148 44.277 8.86364C44.7694 8.7358 45.2855 8.64583 45.8253 8.59375C46.4598 8.52746 46.9711 8.46591 47.3594 8.40909C47.7476 8.34754 48.0294 8.25758 48.2045 8.1392C48.3797 8.02083 48.4673 7.84564 48.4673 7.61364V7.57102C48.4673 7.12121 48.3253 6.7732 48.0412 6.52699C47.7618 6.28078 47.3641 6.15767 46.848 6.15767C46.3035 6.15767 45.8703 6.27841 45.5483 6.51989C45.2263 6.75663 45.0133 7.05492 44.9091 7.41477L42.1108 7.1875C42.2528 6.52462 42.5322 5.9517 42.9489 5.46875C43.3655 4.98106 43.9029 4.60701 44.5611 4.34659C45.224 4.08144 45.991 3.94886 46.8622 3.94886C47.4683 3.94886 48.0483 4.01989 48.6023 4.16193C49.161 4.30398 49.6558 4.52415 50.0866 4.82244C50.5223 5.12074 50.8655 5.50426 51.1165 5.97301C51.3674 6.43703 51.4929 6.99337 51.4929 7.64205V15H48.6236V13.4872H48.5384C48.3632 13.8281 48.1288 14.1288 47.8352 14.3892C47.5417 14.6449 47.1889 14.8461 46.777 14.9929C46.3651 15.1349 45.8892 15.206 45.3494 15.206ZM46.2159 13.1179C46.661 13.1179 47.054 13.0303 47.3949 12.8551C47.7358 12.6752 48.0033 12.4337 48.1974 12.1307C48.3916 11.8277 48.4886 11.4844 48.4886 11.1009V9.94318C48.3939 10.0047 48.2637 10.0616 48.098 10.1136C47.937 10.161 47.7547 10.206 47.5511 10.2486C47.3475 10.2865 47.1439 10.322 46.9403 10.3551C46.7367 10.3835 46.5521 10.4096 46.3864 10.4332C46.0313 10.4853 45.7211 10.5682 45.456 10.6818C45.1908 10.7955 44.9848 10.9493 44.8381 11.1435C44.6913 11.3329 44.6179 11.5696 44.6179 11.8537C44.6179 12.2656 44.767 12.5805 45.0653 12.7983C45.3684 13.0114 45.7519 13.1179 46.2159 13.1179ZM63.5419 5.15625C63.4425 4.81061 63.3028 4.50521 63.1229 4.24006C62.9429 3.97017 62.7228 3.7429 62.4624 3.55824C62.2067 3.36884 61.9131 3.22443 61.5817 3.125C61.255 3.02557 60.8928 2.97585 60.495 2.97585C59.7517 2.97585 59.0982 3.16051 58.5348 3.52983C57.9761 3.89915 57.5405 4.43655 57.228 5.14205C56.9155 5.8428 56.7592 6.69981 56.7592 7.71307C56.7592 8.72633 56.9131 9.58807 57.2209 10.2983C57.5286 11.0085 57.9643 11.5507 58.5277 11.9247C59.0911 12.294 59.7564 12.4787 60.5234 12.4787C61.2195 12.4787 61.8137 12.3556 62.3061 12.1094C62.8033 11.8584 63.1821 11.5057 63.4425 11.0511C63.7076 10.5966 63.8402 10.0592 63.8402 9.43892L64.4652 9.53125H60.7152V7.21591H66.8018V9.0483C66.8018 10.3267 66.532 11.4252 65.9922 12.3438C65.4524 13.2576 64.709 13.9631 63.7621 14.4602C62.8151 14.9527 61.7308 15.1989 60.5092 15.1989C59.1456 15.1989 57.9477 14.8982 56.9155 14.2969C55.8833 13.6908 55.0784 12.8314 54.5007 11.7188C53.9278 10.6013 53.6413 9.27557 53.6413 7.74148C53.6413 6.5625 53.8118 5.51136 54.1527 4.58807C54.4983 3.66004 54.9813 2.87405 55.6016 2.23011C56.2218 1.58617 56.9439 1.09612 57.7678 0.759943C58.5916 0.423768 59.4841 0.255681 60.4453 0.255681C61.2692 0.255681 62.0362 0.37642 62.7464 0.617898C63.4567 0.85464 64.0864 1.19081 64.6357 1.62642C65.1896 2.06203 65.6418 2.58049 65.9922 3.18182C66.3426 3.77841 66.5675 4.43655 66.6669 5.15625H63.5419ZM69.1119 15V0.454545H72.1871V12.4645H78.4229V15H69.1119Z" fill="#DBDDE6"/>
</svg>
