<svg width="113" height="40" viewBox="0 0 113 40" fill="none" xmlns="http://www.w3.org/2000/svg">
<path d="M17.2642 27V12.4545H20.3395V24.4645H26.5753V27H17.2642ZM35.5508 22.3551V16.0909H38.5763V27H35.6715V25.0185H35.5579C35.3117 25.6577 34.9021 26.1714 34.3292 26.5597C33.761 26.9479 33.0674 27.142 32.2482 27.142C31.5191 27.142 30.8775 26.9763 30.3235 26.6449C29.7695 26.3134 29.3363 25.8423 29.0238 25.2315C28.716 24.6207 28.5598 23.8892 28.555 23.0369V16.0909H31.5806V22.4972C31.5853 23.1411 31.7582 23.6501 32.0991 24.0241C32.44 24.3982 32.8969 24.5852 33.4698 24.5852C33.8344 24.5852 34.1753 24.5024 34.4925 24.3366C34.8098 24.1662 35.0655 23.9152 35.2596 23.5838C35.4585 23.2524 35.5555 22.8428 35.5508 22.3551Z" fill="#3609EC"/>
<path d="M40.9964 27V16.0909H43.88V18.0156H44.0078C44.2351 17.3764 44.6139 16.8722 45.1442 16.5028C45.6745 16.1335 46.3089 15.9489 47.0476 15.9489C47.7957 15.9489 48.4325 16.1359 48.9581 16.5099C49.4837 16.8793 49.834 17.3812 50.0092 18.0156H50.1229C50.3454 17.3906 50.7479 16.8911 51.3303 16.517C51.9174 16.1383 52.611 15.9489 53.4112 15.9489C54.4292 15.9489 55.2554 16.2732 55.8899 16.9219C56.5291 17.5658 56.8487 18.4796 56.8487 19.6634V27H53.8303V20.2599C53.8303 19.6539 53.6693 19.1993 53.3473 18.8963C53.0253 18.5933 52.6229 18.4418 52.1399 18.4418C51.5907 18.4418 51.1622 18.617 50.8544 18.9673C50.5466 19.313 50.3928 19.7699 50.3928 20.3381V27H47.4595V20.196C47.4595 19.661 47.3056 19.2348 46.9979 18.9176C46.6948 18.6004 46.2947 18.4418 45.7976 18.4418C45.4614 18.4418 45.1584 18.527 44.8885 18.6974C44.6233 18.8632 44.4126 19.0975 44.2564 19.4006C44.1001 19.6989 44.022 20.0492 44.022 20.4517V27H40.9964ZM62.3494 27.206C61.6534 27.206 61.0331 27.0852 60.4886 26.8438C59.9441 26.5975 59.5133 26.2353 59.196 25.7571C58.8835 25.2741 58.7273 24.6728 58.7273 23.9531C58.7273 23.3471 58.8385 22.8381 59.0611 22.4261C59.2836 22.0142 59.5866 21.6828 59.9702 21.4318C60.3537 21.1809 60.7893 20.9915 61.277 20.8636C61.7694 20.7358 62.2855 20.6458 62.8253 20.5938C63.4598 20.5275 63.9711 20.4659 64.3594 20.4091C64.7476 20.3475 65.0294 20.2576 65.2045 20.1392C65.3797 20.0208 65.4673 19.8456 65.4673 19.6136V19.571C65.4673 19.1212 65.3253 18.7732 65.0412 18.527C64.7618 18.2808 64.3641 18.1577 63.848 18.1577C63.3035 18.1577 62.8703 18.2784 62.5483 18.5199C62.2263 18.7566 62.0133 19.0549 61.9091 19.4148L59.1108 19.1875C59.2528 18.5246 59.5322 17.9517 59.9489 17.4688C60.3655 16.9811 60.9029 16.607 61.5611 16.3466C62.224 16.0814 62.991 15.9489 63.8622 15.9489C64.4683 15.9489 65.0483 16.0199 65.6023 16.1619C66.161 16.304 66.6558 16.5241 67.0866 16.8224C67.5223 17.1207 67.8655 17.5043 68.1165 17.973C68.3674 18.437 68.4929 18.9934 68.4929 19.642V27H65.6236V25.4872H65.5384C65.3632 25.8281 65.1288 26.1288 64.8352 26.3892C64.5417 26.6449 64.1889 26.8461 63.777 26.9929C63.3651 27.1349 62.8892 27.206 62.3494 27.206ZM63.2159 25.1179C63.661 25.1179 64.054 25.0303 64.3949 24.8551C64.7358 24.6752 65.0033 24.4337 65.1974 24.1307C65.3916 23.8277 65.4886 23.4844 65.4886 23.1009V21.9432C65.3939 22.0047 65.2637 22.0616 65.098 22.1136C64.937 22.161 64.7547 22.206 64.5511 22.2486C64.3475 22.2865 64.1439 22.322 63.9403 22.3551C63.7367 22.3835 63.5521 22.4096 63.3864 22.4332C63.0313 22.4853 62.7211 22.5682 62.456 22.6818C62.1908 22.7955 61.9848 22.9493 61.8381 23.1435C61.6913 23.3329 61.6179 23.5696 61.6179 23.8537C61.6179 24.2656 61.767 24.5805 62.0653 24.7983C62.3684 25.0114 62.7519 25.1179 63.2159 25.1179ZM80.5419 17.1562C80.4425 16.8106 80.3028 16.5052 80.1229 16.2401C79.9429 15.9702 79.7228 15.7429 79.4624 15.5582C79.2067 15.3688 78.9131 15.2244 78.5817 15.125C78.255 15.0256 77.8928 14.9759 77.495 14.9759C76.7517 14.9759 76.0982 15.1605 75.5348 15.5298C74.9761 15.8991 74.5405 16.4366 74.228 17.142C73.9155 17.8428 73.7592 18.6998 73.7592 19.7131C73.7592 20.7263 73.9131 21.5881 74.2209 22.2983C74.5286 23.0085 74.9643 23.5507 75.5277 23.9247C76.0911 24.294 76.7564 24.4787 77.5234 24.4787C78.2195 24.4787 78.8137 24.3556 79.3061 24.1094C79.8033 23.8584 80.1821 23.5057 80.4425 23.0511C80.7076 22.5966 80.8402 22.0592 80.8402 21.4389L81.4652 21.5312H77.7152V19.2159H83.8018V21.0483C83.8018 22.3267 83.532 23.4252 82.9922 24.3438C82.4524 25.2576 81.709 25.9631 80.7621 26.4602C79.8151 26.9527 78.7308 27.1989 77.5092 27.1989C76.1456 27.1989 74.9477 26.8982 73.9155 26.2969C72.8833 25.6908 72.0784 24.8314 71.5007 23.7188C70.9278 22.6013 70.6413 21.2756 70.6413 19.7415C70.6413 18.5625 70.8118 17.5114 71.1527 16.5881C71.4983 15.66 71.9813 14.8741 72.6016 14.2301C73.2218 13.5862 73.9439 13.0961 74.7678 12.7599C75.5916 12.4238 76.4841 12.2557 77.4453 12.2557C78.2692 12.2557 79.0362 12.3764 79.7464 12.6179C80.4567 12.8546 81.0864 13.1908 81.6357 13.6264C82.1896 14.062 82.6418 14.5805 82.9922 15.1818C83.3426 15.7784 83.5675 16.4366 83.6669 17.1562H80.5419ZM86.1119 27V12.4545H89.1871V24.4645H95.4229V27H86.1119Z" fill="black"/>
</svg>
